<svg xmlns="http://www.w3.org/2000/svg" viewBox="0 0 226.91 50"><defs><style>.cls-1{fill:#007db1;}.cls-2{fill:#66b360;}</style></defs><title>horiz-logo-color-vector</title><g id="text"><path class="cls-1" d="M99.39,15V32.29a38,38,0,0,1-.16,4.54A4.58,4.58,0,0,1,98.09,39a6.28,6.28,0,0,1-2.74,1.75,13.88,13.88,0,0,1-4.42.6,10.73,10.73,0,0,1-5.26-1.11c-1.32-.74-2-2.2-2-4.37h6.65c0,1,.36,1.49,1.08,1.49a1.08,1.08,0,0,0,1-.46A4.62,4.62,0,0,0,92.64,35V33.29a6.55,6.55,0,0,1-1.86,1.2,5.09,5.09,0,0,1-2,.41,5.76,5.76,0,0,1-3-.74,3.83,3.83,0,0,1-1.63-2,10.41,10.41,0,0,1-.44-3.46V20.57c0-2.14.38-3.68,1.15-4.62a4.27,4.27,0,0,1,3.51-1.41,5.23,5.23,0,0,1,2.35.53,5.51,5.51,0,0,1,1.89,1.58L93,15Zm-6.87,6a6.37,6.37,0,0,0-.18-2,.74.74,0,0,0-.78-.43.86.86,0,0,0-.84.48,4.75,4.75,0,0,0-.25,1.91v7.57a6.12,6.12,0,0,0,.19,2,.75.75,0,0,0,.78.45.84.84,0,0,0,.88-.54,9.34,9.34,0,0,0,.2-2.46Z"/><path class="cls-1" d="M108.89,10v3.58h-7V10Zm0,4.95V37.46h-7V15Z"/><path class="cls-1" d="M125.53,15l-3.2,22.51h-9L109.93,15h6.12L118,31.39c.15-1.21.41-4.15.77-8.84.19-2.61.42-5.14.66-7.6Z"/><path class="cls-1" d="M142.06,26.61h-8.87v4.87a5.3,5.3,0,0,0,.22,2,.84.84,0,0,0,.84.44,1,1,0,0,0,1.05-.58,6.59,6.59,0,0,0,.26-2.27v-3h6.5v1.66a14.42,14.42,0,0,1-.27,3.2,6.38,6.38,0,0,1-1.23,2.4,6,6,0,0,1-2.45,1.9,9.37,9.37,0,0,1-3.72.64,10.72,10.72,0,0,1-3.83-.63,5.94,5.94,0,0,1-3.87-4.13,15.33,15.33,0,0,1-.36-3.82V22.72a11.22,11.22,0,0,1,.8-4.66,5.51,5.51,0,0,1,2.61-2.61,10.44,10.44,0,0,1,8.93.19,6,6,0,0,1,2.63,2.9,13.44,13.44,0,0,1,.76,5.08Zm-6.87-3.67V21.3A8,8,0,0,0,135,19a.73.73,0,0,0-.76-.51c-.48,0-.77.15-.88.43a8.74,8.74,0,0,0-.17,2.34v1.64Z"/><path class="cls-2" d="M159.45,23.45H153V20.86a5.1,5.1,0,0,0-.22-1.85.81.81,0,0,0-.81-.48.79.79,0,0,0-.8.43,5.32,5.32,0,0,0-.2,1.9V31.48a4.18,4.18,0,0,0,.3,1.8,1,1,0,0,0,.9.6.92.92,0,0,0,.94-.62,7.37,7.37,0,0,0,.25-2.38V28.2h6.11a37,37,0,0,1-.2,4.05A6.45,6.45,0,0,1,158.11,35a6,6,0,0,1-2.5,2.14,9,9,0,0,1-3.81.72,9.11,9.11,0,0,1-4.6-1,5.47,5.47,0,0,1-2.4-2.78,14.41,14.41,0,0,1-.71-5.08v-6.4a12.53,12.53,0,0,1,.58-4.33,5.55,5.55,0,0,1,2.46-2.6,9.73,9.73,0,0,1,9.16,0,5.56,5.56,0,0,1,2.53,2.87A14.92,14.92,0,0,1,159.45,23.45Z"/><path class="cls-2" d="M167.61,23.67h-6.43V22.16a10.72,10.72,0,0,1,.6-4,5.59,5.59,0,0,1,2.42-2.5,11.25,11.25,0,0,1,10,.14,4.76,4.76,0,0,1,2.12,3,46.94,46.94,0,0,1,.36,7.38V37.46H170v-2a4.35,4.35,0,0,1-1.62,1.81,4.48,4.48,0,0,1-2.36.6,5.81,5.81,0,0,1-3.3-1c-1-.67-1.5-2.14-1.5-4.42V30.59a5.43,5.43,0,0,1,.79-3.44,11.41,11.41,0,0,1,4-2.14c2.25-.88,3.45-1.47,3.61-1.78a4.69,4.69,0,0,0,.24-1.87,6.08,6.08,0,0,0-.27-2.29.89.89,0,0,0-.87-.54c-.46,0-.75.15-.86.45a8.8,8.8,0,0,0-.17,2.33Zm2.17,3.09a5,5,0,0,0-1.91,2,7.84,7.84,0,0,0-.26,2.34,6.66,6.66,0,0,0,.23,2.26.89.89,0,0,0,.9.5.85.85,0,0,0,.84-.39,6.45,6.45,0,0,0,.2-2.1Z"/><path class="cls-2" d="M185.76,15l-.12,2.14a5.51,5.51,0,0,1,1.9-1.91,5,5,0,0,1,2.51-.64,4.88,4.88,0,0,1,4.33,2.55,6.09,6.09,0,0,1,2-1.91,4.69,4.69,0,0,1,2.41-.64,4.78,4.78,0,0,1,2.89.85,3.8,3.8,0,0,1,1.47,2.08,17.82,17.82,0,0,1,.32,4v16h-6.65V22.79a18.34,18.34,0,0,0-.2-3.57.86.86,0,0,0-.91-.69.9.9,0,0,0-.94.68,17.2,17.2,0,0,0-.21,3.58V37.46h-6.65V23.16a26,26,0,0,0-.16-4,.81.81,0,0,0-.89-.66,1,1,0,0,0-.78.35,1.34,1.34,0,0,0-.36.85q0,.49,0,2.13v15.6H179V15Z"/><path class="cls-2" d="M212.75,15l-.12,2a6.39,6.39,0,0,1,2-1.8,5,5,0,0,1,2.41-.6,4.5,4.5,0,0,1,2.75.86,3.54,3.54,0,0,1,1.45,2,16.68,16.68,0,0,1,.29,3.8v9.48a18.39,18.39,0,0,1-.36,4.37,3.67,3.67,0,0,1-1.5,2.07,4.71,4.71,0,0,1-2.72.77,4.92,4.92,0,0,1-2.36-.59,6.53,6.53,0,0,1-2-1.77v5.16h-6.85V15Zm1.95,6.55a11.73,11.73,0,0,0-.15-2.53c-.11-.29-.39-.44-.85-.44a.84.84,0,0,0-.88.51,9.19,9.19,0,0,0-.19,2.46v9.33a9.56,9.56,0,0,0,.2,2.55.85.85,0,0,0,.88.5c.45,0,.72-.15.83-.46a9.21,9.21,0,0,0,.16-2.27Z"/></g><g id="tent"><path class="cls-1" d="M27.92,17,5.51,45.6H3.29C18.07,31.38,25,11.67,25,11.67S26,13.89,27.92,17Z"/><path class="cls-2" d="M25.73,11.34s13.43,25.07,24.69,35L75.27,32.12S56.81,15.68,54,5Z"/></g></svg>